<svg xmlns="http://www.w3.org/2000/svg" viewBox="0 0 100 100" width="100" height="100">
  <defs>
    <radialGradient id="spaceGradient" cx="50%" cy="50%" r="50%">
      <stop offset="0%" style="stop-color:#1a1a2e;stop-opacity:1" />
      <stop offset="70%" style="stop-color:#16213e;stop-opacity:1" />
      <stop offset="100%" style="stop-color:#0f3460;stop-opacity:1" />
    </radialGradient>
    <radialGradient id="clockGradient" cx="50%" cy="50%" r="40%">
      <stop offset="0%" style="stop-color:#00bfff;stop-opacity:0.9" />
      <stop offset="50%" style="stop-color:#4169e1;stop-opacity:0.7" />
      <stop offset="100%" style="stop-color:#8a2be2;stop-opacity:0.5" />
    </radialGradient>
  </defs>
  
  <!-- Space background -->
  <circle cx="50" cy="50" r="50" fill="url(#spaceGradient)"/>
  
  <!-- Stars -->
  <circle cx="20" cy="25" r="0.8" fill="#ffffff" opacity="0.8"/>
  <circle cx="75" cy="20" r="0.6" fill="#ffffff" opacity="0.6"/>
  <circle cx="85" cy="35" r="0.5" fill="#ffffff" opacity="0.7"/>
  <circle cx="15" cy="70" r="0.7" fill="#ffffff" opacity="0.5"/>
  <circle cx="30" cy="85" r="0.4" fill="#ffffff" opacity="0.8"/>
  <circle cx="80" cy="75" r="0.6" fill="#ffffff" opacity="0.6"/>
  
  <!-- Clock face -->
  <circle cx="50" cy="50" r="30" fill="url(#clockGradient)" stroke="#00bfff" stroke-width="2" opacity="0.9"/>
  
  <!-- Clock markings -->
  <line x1="50" y1="25" x2="50" y2="30" stroke="#ffffff" stroke-width="2"/>
  <line x1="75" y1="50" x2="70" y2="50" stroke="#ffffff" stroke-width="2"/>
  <line x1="50" y1="75" x2="50" y2="70" stroke="#ffffff" stroke-width="2"/>
  <line x1="25" y1="50" x2="30" y2="50" stroke="#ffffff" stroke-width="2"/>
  
  <!-- Clock hands -->
  <line x1="50" y1="50" x2="50" y2="35" stroke="#ffffff" stroke-width="3" stroke-linecap="round"/>
  <line x1="50" y1="50" x2="62" y2="50" stroke="#ffffff" stroke-width="2" stroke-linecap="round"/>
  
  <!-- Center dot -->
  <circle cx="50" cy="50" r="2" fill="#ffffff"/>
  
  <!-- Planet ring -->
  <ellipse cx="50" cy="50" rx="42" ry="8" fill="none" stroke="#00bfff" stroke-width="1" opacity="0.4" transform="rotate(30 50 50)"/>
  
  <!-- Small planet -->
  <circle cx="35" cy="35" r="3" fill="#ffa500" opacity="0.8"/>
</svg>
